<svg xmlns="http://www.w3.org/2000/svg" viewBox="0 0 609.28 177.45"><path d="M310.92,472.5V380.86l-151.4-33.5V503.84Zm4.52,8.93a6.44,6.44,0,0,0,5.14-6.31V378.28a6.44,6.44,0,0,0-5.05-6.29L157.69,337.06a6.44,6.44,0,0,0-7.83,6.29V507.8a6.45,6.45,0,0,0,7.75,6.31Z" transform="translate(-120.87 -336.79)" fill="#d53f8c" fill-rule="evenodd"/><path d="M120.87,375.91A6.44,6.44,0,0,1,126,369.6l157.84-32.67a6.44,6.44,0,0,1,7.75,6.3V507.69a6.44,6.44,0,0,1-7.83,6.29L125.92,479a6.44,6.44,0,0,1-5-6.29Z" transform="translate(-120.87 -336.79)" fill="#f2e142"/><path d="M159.52,345.08V506.13h-9.66v-161Z" transform="translate(-120.87 -336.79)" fill="#d53f8c"/><path d="M369.85,457.41h9.62v-39.6c0-8.47,6.68-14.66,15.8-14.66a29.66,29.66,0,0,1,5.87.65V394c-1.1-.08-3.63-.16-5.05-.16-7.5,0-14,4.23-16.3,10.43h-.65v-9.45h-9.29Z" transform="translate(-120.87 -336.79)" fill="#fff"/><path d="M431.35,458.72c12.71,0,22-6.36,24.94-15.81L447,440.3c-2.45,6.52-8.11,9.78-15.65,9.78-11.28,0-19.06-7.29-19.51-20.7h45.42v-4.07c0-23.3-13.85-31.29-26.89-31.29-16.94,0-28.19,13.36-28.19,32.59S413.26,458.72,431.35,458.72Zm-19.51-37.65c.65-9.73,7.53-18.41,18.53-18.41,10.43,0,17.12,7.82,17.12,18.41Z" transform="translate(-120.87 -336.79)" fill="#fff"/><path d="M517.54,394.84H507.11L489.84,444.7h-.65l-17.28-49.86H461.49l23.13,62.57h9.78Z" transform="translate(-120.87 -336.79)" fill="#fff"/><path d="M548.71,458.72c12.71,0,22-6.36,24.94-15.81l-9.29-2.61c-2.45,6.52-8.11,9.78-15.65,9.78-11.28,0-19.06-7.29-19.51-20.7h45.42v-4.07c0-23.3-13.85-31.29-26.88-31.29-17,0-28.19,13.36-28.19,32.59S530.63,458.72,548.71,458.72ZM529.2,421.07c.65-9.73,7.54-18.41,18.54-18.41,10.43,0,17.11,7.82,17.11,18.41Z" transform="translate(-120.87 -336.79)" fill="#fff"/><path d="M602.15,458.88c10.92,0,16.62-5.87,18.58-9.94h.49v8.47h9.61V416.18c0-19.88-15.15-22.16-23.14-22.16-9.45,0-20.21,3.26-25.1,14.67l9.13,3.26c2.12-4.57,7.13-9.46,16.3-9.46,8.84,0,13.2,4.69,13.2,12.72v.32c0,4.65-4.73,4.23-16.14,5.71-11.61,1.5-24.28,4.07-24.28,18.41C580.8,451.87,590.25,458.88,602.15,458.88Zm1.47-8.64c-7.66,0-13.2-3.42-13.2-10.1,0-7.33,6.67-9.65,14.17-10.59,4.08-.51,15-1.63,16.63-3.59v8.8C621.22,442.58,615,450.24,603.62,450.24Z" transform="translate(-120.87 -336.79)" fill="#fff"/><path d="M652.48,374h-9.61v83.43h9.61Z" transform="translate(-120.87 -336.79)" fill="#fff"/><path d="M685.93,412.63v27.65c0,2.62-1,4.09-3.39,4.09h-.71v3.69h.78c4.81,0,7.16-3,7.16-7.78V412.63Zm1.88-4.29a2.69,2.69,0,1,0-2.73-2.69A2.73,2.73,0,0,0,687.81,408.34Z" transform="translate(-120.87 -336.79)" fill="#fff"/><path d="M713.58,418.4c-1.2-3.66-3.9-6.11-8.85-6.11-5.27,0-9.17,3.09-9.17,7.45,0,3.56,2.05,5.94,6.63,7.05l4.17,1c2.52.6,3.71,1.84,3.71,3.62,0,2.22-2.28,4-5.86,4-3.14,0-5.11-1.4-5.79-4.16l-3.64.94c.89,4.38,4.39,6.71,9.49,6.71,5.81,0,9.77-3.27,9.77-7.72,0-3.59-2.18-5.86-6.64-7l-3.71-.94c-3-.75-4.3-1.78-4.3-3.76,0-2.21,2.28-3.82,5.34-3.82a5.27,5.27,0,0,1,5.4,3.69Z" transform="translate(-120.87 -336.79)" fill="#fff"/><path d="M723.7,396.52H672.16a3.23,3.23,0,0,0-3.22,3.23v51.54a3.22,3.22,0,0,0,3.22,3.22H723.7a3.22,3.22,0,0,0,3.22-3.22V399.75A3.23,3.23,0,0,0,723.7,396.52Zm-51.54-3.22a6.44,6.44,0,0,0-6.44,6.45v51.54a6.44,6.44,0,0,0,6.44,6.44H723.7a6.44,6.44,0,0,0,6.44-6.44V399.75a6.44,6.44,0,0,0-6.44-6.45Z" transform="translate(-120.87 -336.79)" fill="#fff" fill-rule="evenodd"/></svg>