<svg xmlns="http://www.w3.org/2000/svg" xmlns:xlink="http://www.w3.org/1999/xlink" viewBox="0 0 562 558.76"><defs><mask id="a" x="0" y="0" width="562" height="558.76" maskUnits="userSpaceOnUse"><path d="M398.62,556.37a34.94,34.94,0,0,0,27.87-1.07l115.63-55.64A35.09,35.09,0,0,0,562,468V90.74A35.12,35.12,0,0,0,542.12,59.1L426.49,3.46a35,35,0,0,0-39.9,6.79l-221.37,202L68.79,139a23.39,23.39,0,0,0-29.87,1.33L8,168.48a23.41,23.41,0,0,0,0,34.61L91.6,279.38,8,355.67a23.41,23.41,0,0,0,0,34.61l30.92,28.13a23.36,23.36,0,0,0,29.87,1.33l96.43-73.19,221.37,202A34.9,34.9,0,0,0,398.62,556.37Zm23.05-404.49-168,127.5,168,127.5Z" fill="#fff" fill-rule="evenodd"/></mask><linearGradient id="b" x1="280.83" y1="557.84" x2="280.83" y2="-0.92" gradientTransform="matrix(1, 0, 0, -1, 0, 557.84)" gradientUnits="userSpaceOnUse"><stop offset="0" stop-color="#fff"/><stop offset="1" stop-color="#fff" stop-opacity="0"/></linearGradient></defs><g mask="url(#a)"><path d="M542.12,59.19,426.4,3.47a35,35,0,0,0-39.92,6.78L7.63,355.67a23.41,23.41,0,0,0,0,34.61l31,28.13a23.38,23.38,0,0,0,29.88,1.33L524.71,73.65C540,62,562,73,562,92.16V90.82A35.11,35.11,0,0,0,542.12,59.19Z" fill="#0065a9"/><path d="M542.12,499.57,426.4,555.29a35,35,0,0,1-39.92-6.78L7.63,203.09a23.41,23.41,0,0,1,0-34.61l31-28.13A23.4,23.4,0,0,1,68.49,139l456.22,346.1C540,496.73,562,485.81,562,466.6v1.34A35.11,35.11,0,0,1,542.12,499.57Z" fill="#007acc"/><path d="M426.4,555.3a35,35,0,0,1-39.92-6.79c13,13,35.11,3.78,35.11-14.54V24.79c0-18.32-22.15-27.49-35.11-14.54A35,35,0,0,1,426.4,3.46L542.11,59.1A35.11,35.11,0,0,1,562,90.74V468a35.1,35.1,0,0,1-19.89,31.63Z" fill="#1f9cf0"/><g opacity="0.25"><path d="M398.28,556.37a34.92,34.92,0,0,0,27.86-1.07l115.64-55.64A35.11,35.11,0,0,0,561.66,468V90.74A35.12,35.12,0,0,0,541.78,59.1L426.14,3.46a35,35,0,0,0-39.89,6.79l-221.38,202L68.45,139a23.39,23.39,0,0,0-29.87,1.33L7.66,168.48a23.41,23.41,0,0,0,0,34.61l83.62,76.29L7.63,355.67a23.41,23.41,0,0,0,0,34.61l30.92,28.13a23.36,23.36,0,0,0,29.87,1.33l96.42-73.19,221.38,202A34.9,34.9,0,0,0,398.28,556.37Zm23.05-404.49-168,127.5,168,127.5Z" fill-rule="evenodd" fill="url(#b)"/></g></g></svg>