<svg xmlns="http://www.w3.org/2000/svg" viewBox="0 0 396.5 386.71"><path d="M198.24,0C88.77,0,0,88.76,0,198.26A198.29,198.29,0,0,0,135.59,386.37c9.91,1.82,13.53-4.3,13.53-9.56,0-4.7-.18-17.17-.27-33.72-55.15,12-66.78-26.57-66.78-26.57-9-22.9-22-29-22-29-18-12.3,1.37-12,1.37-12,19.89,1.4,30.36,20.43,30.36,20.43,17.69,30.29,46.4,21.55,57.7,16.47,1.8-12.81,6.92-21.55,12.59-26.5-44-5-90.31-22-90.31-98,0-21.65,7.73-39.34,20.41-53.2-2-5-8.84-25.17,1.94-52.47,0,0,16.65-5.33,54.52,20.33a187.71,187.71,0,0,1,99.26,0c37.85-25.66,54.47-20.33,54.47-20.33,10.81,27.3,4,47.45,2,52.47,12.71,13.86,20.38,31.55,20.38,53.2,0,76.16-46.35,92.91-90.52,97.82,7.12,6.12,13.46,18.22,13.46,36.72,0,26.5-.24,47.88-.24,54.38,0,5.3,3.57,11.47,13.63,9.53A198.3,198.3,0,0,0,396.5,198.26C396.5,88.76,307.73,0,198.24,0Z" fill-rule="evenodd"/></svg>