<svg xmlns="http://www.w3.org/2000/svg" xmlns:xlink="http://www.w3.org/1999/xlink" viewBox="0 0 513.06 525.97"><defs><linearGradient id="a" x1="-538.87" y1="491.04" x2="-522.01" y2="499.26" gradientTransform="matrix(3.78, 0, 0, -3.78, 2450.6, 2340.3)" gradientUnits="userSpaceOnUse"><stop offset="0" stop-color="#fff" stop-opacity="0.36"/><stop offset="1" stop-color="#fff" stop-opacity="0"/></linearGradient><linearGradient id="b" x1="-567.79" y1="518.02" x2="-644.11" y2="472.82" gradientTransform="matrix(3.78, 0, 0, -3.78, 2450.6, 2340.3)" gradientUnits="userSpaceOnUse"><stop offset="0" stop-opacity="0.1"/><stop offset="1" stop-opacity="0.3"/></linearGradient><linearGradient id="c" x1="-592.76" y1="570.65" x2="-544.01" y2="527.16" xlink:href="#b"/><linearGradient id="d" x1="-547.67" y1="495.11" x2="-516.6" y2="474.17" xlink:href="#b"/><linearGradient id="e" x1="-583.6" y1="498.01" x2="-628.97" y2="517.23" xlink:href="#a"/><linearGradient id="f" x1="-1119.91" y1="541.96" x2="-1141.59" y2="552.54" gradientTransform="translate(-4090.92 2304.99) rotate(180) scale(3.88)" xlink:href="#a"/></defs><path d="M256.53,0,166.08,185.44,415,324.91ZM138.76,241.47,0,526l411.75-170.1ZM442.2,380.68,312.34,455.23,513.06,526Z" fill="#10a0cc"/><path d="M395.62,446.82l46.58-66.14L513.06,526Z" fill="url(#a)"/><path d="M0,526,288.46,355.14l123.29.73Z" fill="url(#b)"/><path d="M415,324.91,166.09,185.44l64.66-24.91Z" fill="url(#c)"/><path d="M513.06,526,312.34,455.23l83.28-8.41Z" fill="url(#d)"/><path d="M0,526,288.46,355.14,138.76,241.47Z" fill="url(#e)"/><path d="M415,324.91,230.75,160.53,256.53,0Z" fill="url(#f)"/></svg>