<svg xmlns="http://www.w3.org/2000/svg" viewBox="0 0 536.5 509.43"><path d="M254.62,0C232,55.59,218.27,91.94,193,145.88c15.48,16.41,34.47,35.51,65.33,57.1-33.17-13.65-55.79-27.36-72.71-41.58-32.3,67.42-82.93,163.46-185.65,348,80.74-46.59,143.32-75.35,201.65-86.29-15.19-65.44,16.25-129.37,56.33-126,41.31,3.5,64.36,71.31,52.11,126.35,57.69,11.28,119.61,39.94,199.26,85.92-15.7-28.9-29.74-55-43.1-79.79C445.15,413.3,423.17,392,378.3,369c30.83,8,52.91,17.26,70.13,27.59C312.32,143.17,301.31,109.5,254.62,0ZM511.89,464V450h-5.22v-1.87h12.54V450H514V464Zm9.5,0V448.17h3.16s4.35,13,4.5,13.55c.23-.72-.19.51,4.63-13.55h2.82V464h-2V450.74L529.88,464H528l-4.6-13.46V464Z" fill="#1793d1"/></svg>