<svg xmlns="http://www.w3.org/2000/svg" xmlns:xlink="http://www.w3.org/1999/xlink" viewBox="0 0 660.1 404.32"><defs><clipPath id="a"><path d="M239.79,93.4l-62.88,36.29a7.6,7.6,0,0,0-3.79,6.58V208.9a7.57,7.57,0,0,0,3.79,6.57l62.88,36.32a7.59,7.59,0,0,0,7.6,0l62.87-36.32a7.59,7.59,0,0,0,3.79-6.57V136.27a7.6,7.6,0,0,0-3.81-6.58L247.38,93.4a7.67,7.67,0,0,0-7.61,0Z" fill="none"/></clipPath><linearGradient id="b" x1="-94.93" y1="629.41" x2="-93.14" y2="629.41" gradientTransform="matrix(-50.75, 103.54, 103.54, 50.75, -69695.55, -22036.34)" gradientUnits="userSpaceOnUse"><stop offset="0.3" stop-color="#3e863d"/><stop offset="0.5" stop-color="#55934f"/><stop offset="0.8" stop-color="#5aad45"/></linearGradient><clipPath id="c"><path d="M174.67,213.51a7.55,7.55,0,0,0,2.24,2l62.92,36.32a7.51,7.51,0,0,0,4.38,1,7.65,7.65,0,0,0,1.49-.27L312,131.09a7.6,7.6,0,0,0-1.77-1.4L247.32,93.4a8,8,0,0,0-2-.8Z" fill="none"/></clipPath><linearGradient id="d" x1="-96.67" y1="626.04" x2="-95.51" y2="626.04" gradientTransform="matrix(142.41, -105.22, -105.22, -142.41, 79800.92, 79215.14)" gradientUnits="userSpaceOnUse"><stop offset="0.57" stop-color="#3e863d"/><stop offset="0.72" stop-color="#619857"/><stop offset="1" stop-color="#76ac64"/></linearGradient><clipPath id="e"><path d="M242.83,92.43a7.74,7.74,0,0,0-3,1L177.1,129.59l67.6,123.13a7.36,7.36,0,0,0,2.7-.93l62.87-36.32a7.58,7.58,0,0,0,3.67-5.18L245,92.56a8,8,0,0,0-1.54-.16q-.31,0-.63,0Z" fill="none"/></clipPath><linearGradient id="f" x1="-94.97" y1="625.68" x2="-93.92" y2="625.68" gradientTransform="matrix(129.89, 0, 0, -129.89, 12512.75, 81442.18)" gradientUnits="userSpaceOnUse"><stop offset="0.16" stop-color="#6bbf47"/><stop offset="0.38" stop-color="#79b461"/><stop offset="0.47" stop-color="#75ac64"/><stop offset="0.7" stop-color="#659e5a"/><stop offset="0.9" stop-color="#3e863d"/></linearGradient></defs><path d="M326.23,404.32a12.53,12.53,0,0,1-6.25-1.67l-19.91-11.78c-3-1.66-1.52-2.25-.54-2.59a40.44,40.44,0,0,0,9-4.1,1.49,1.49,0,0,1,1.48.1l15.29,9.07a2,2,0,0,0,1.85,0l59.62-34.41a1.89,1.89,0,0,0,.91-1.61v-68.8a1.91,1.91,0,0,0-.92-1.64l-59.6-34.39a1.86,1.86,0,0,0-1.83,0l-59.59,34.39a1.92,1.92,0,0,0-.94,1.63v68.79a1.84,1.84,0,0,0,.92,1.6l16.33,9.43c8.86,4.43,14.28-.79,14.28-6V294.4a1.7,1.7,0,0,1,1.73-1.72h7.55a1.71,1.71,0,0,1,1.72,1.72v67.93c0,11.82-6.45,18.61-17.65,18.61-3.45,0-6.17,0-13.75-3.73l-15.64-9A12.62,12.62,0,0,1,254,357.31V288.52a12.54,12.54,0,0,1,6.25-10.87L320,243.22a13.1,13.1,0,0,1,12.54,0l59.6,34.45a12.56,12.56,0,0,1,6.25,10.86v68.8a12.61,12.61,0,0,1-6.25,10.86l-59.6,34.43a12.6,12.6,0,0,1-6.29,1.67Z" fill="#689f63"/><path d="M344.65,356.92c-26.09,0-31.56-12-31.56-22a1.72,1.72,0,0,1,1.73-1.72h7.7a1.73,1.73,0,0,1,1.7,1.46c1.16,7.85,4.62,11.81,20.4,11.81,12.56,0,17.91-2.84,17.91-9.5,0-3.84-1.53-6.69-21-8.6-16.32-1.61-26.41-5.21-26.41-18.27,0-12,10.15-19.19,27.15-19.19,19.08,0,28.54,6.63,29.74,20.86a1.73,1.73,0,0,1-1.73,1.88h-7.75a1.7,1.7,0,0,1-1.67-1.34c-1.87-8.25-6.37-10.89-18.62-10.89-13.72,0-15.32,4.77-15.32,8.35,0,4.35,1.88,5.62,20.39,8.06,18.33,2.44,27,5.87,27,18.75S363.45,357,344.56,357Z" fill="#689f63"/><path d="M423.38,287.88c-.23-1.65-.35-2.81-2.13-2.93a3,3,0,0,0,2.43-3.16c0-3.41-3-3.41-4.5-3.41h-4.44v12.91h2.5v-5.16h2.25c.91,0,1.16.36,1.34,1.09,0,.18.42,3.46.5,4.06h2.73A12.51,12.51,0,0,1,423.38,287.88Zm-4.2-3.85h-2v-3.59h2.07c.67,0,1.88,0,1.88,1.77A1.73,1.73,0,0,1,419.18,284Z" fill="#689f63"/><path d="M430.52,284.83A11.49,11.49,0,1,0,419,296.32a11.48,11.48,0,0,0,11.48-11.49ZM419,294.47a9.65,9.65,0,0,1-9.61-9.67h0a9.64,9.64,0,0,1,19.28,0A9.71,9.71,0,0,1,419,294.47Z" fill="#689f63"/><path d="M141.55,135.13a7.58,7.58,0,0,0-3.76-6.63L74.58,92.13a7.4,7.4,0,0,0-3.47-1h-.66a7.55,7.55,0,0,0-3.49,1L3.75,128.5A7.62,7.62,0,0,0,0,135.14v98a3.84,3.84,0,0,0,2,3.3,3.66,3.66,0,0,0,3.8,0l37.57-21.52a7.71,7.71,0,0,0,3.82-6.63V162.49A7.6,7.6,0,0,1,51,155.88l16-9.22a7.68,7.68,0,0,1,3.82-1,7.42,7.42,0,0,1,3.8,1l16,9.21a7.61,7.61,0,0,1,3.82,6.61v45.76a7.73,7.73,0,0,0,3.83,6.63l37.55,21.5a3.69,3.69,0,0,0,3.82,0,3.89,3.89,0,0,0,2-3.29Z" fill="#333"/><path d="M483.36,21.48,445.75.48a3.81,3.81,0,0,0-5.68,3.34v97a2.68,2.68,0,0,1-4,2.32L420.23,94a7.6,7.6,0,0,0-7.63,0l-63.23,36.49a7.63,7.63,0,0,0-3.82,6.6v73a7.64,7.64,0,0,0,3.82,6.61l63.23,36.52a7.66,7.66,0,0,0,7.64,0l63.23-36.53a7.66,7.66,0,0,0,3.82-6.61V28.15A7.65,7.65,0,0,0,483.36,21.48ZM439.88,186.14a1.9,1.9,0,0,1-.95,1.65L417.22,200.3a1.92,1.92,0,0,1-1.91,0L393.6,187.79a1.89,1.89,0,0,1-1-1.65V161.07a1.94,1.94,0,0,1,.94-1.66l21.7-12.53a1.91,1.91,0,0,1,1.93,0l21.71,12.53a1.92,1.92,0,0,1,1,1.66Z" fill="#333"/><path d="M656.31,160.41a7.62,7.62,0,0,0,3.79-6.6V136.12a7.64,7.64,0,0,0-3.8-6.61L593.47,93a7.63,7.63,0,0,0-7.65,0L522.6,129.53a7.62,7.62,0,0,0-3.82,6.61v73a7.67,7.67,0,0,0,3.85,6.64l62.82,35.8a7.6,7.6,0,0,0,7.49,0l38-21.11a3.81,3.81,0,0,0,0-6.64l-63.6-36.51a3.78,3.78,0,0,1-1.93-3.3V161.15a3.81,3.81,0,0,1,1.91-3.31l19.79-11.41a3.77,3.77,0,0,1,3.81,0l19.8,11.41a3.81,3.81,0,0,1,1.91,3.3v18a3.81,3.81,0,0,0,5.73,3.3Z" fill="#333"/><path d="M588.72,157a1.42,1.42,0,0,1,1.46,0l12.14,7a1.49,1.49,0,0,1,.73,1.27v14a1.46,1.46,0,0,1-.73,1.26l-12.14,7a1.42,1.42,0,0,1-1.46,0l-12.12-7a1.44,1.44,0,0,1-.75-1.26v-14a1.46,1.46,0,0,1,.73-1.27Z" fill="#689f63"/><g clip-path="url(#a)"><path d="M377.58,123.53,200.42,36.69,109.58,222l177.16,86.85Z" fill="url(#b)"/></g><g clip-path="url(#c)"><path d="M98.07,149.22l125.1,169.31L388.61,196.3,263.51,27Z" fill="url(#d)"/></g><g clip-path="url(#e)"><path d="M177.09,92.4V252.73H313.92V92.4Z" fill="url(#f)"/></g></svg>