<svg xmlns="http://www.w3.org/2000/svg" xmlns:xlink="http://www.w3.org/1999/xlink" viewBox="0 0 540.21 540.21"><defs><linearGradient id="a" x1="-9.58" y1="626.41" x2="-48.52" y2="535.56" gradientTransform="matrix(3.47, 0, 0, -3.47, 382.5, 2257.92)" gradientUnits="userSpaceOnUse"><stop offset="0" stop-color="#37aee2"/><stop offset="1" stop-color="#1e96c8"/></linearGradient></defs><circle cx="270.1" cy="270.1" r="270.1" fill="url(#a)"/><path d="M112.41,267.76,294.3,192.82c18-7.81,78.85-32.79,78.85-32.79s28.1-10.93,25.76,15.62c-.78,10.92-7,49.18-13.27,90.55L366.12,388.76s-1.56,18-14.83,21.08-35.13-10.93-39-14c-3.12-2.35-58.55-37.47-78.85-54.65-5.46-4.68-11.71-14.05.78-25,28.11-25.76,61.67-57.77,82-78.06,9.37-9.37,18.74-31.23-20.3-4.69L185.79,307.57s-12.49,7.81-35.91.78S99.14,292,99.14,292s-18.73-11.71,13.27-24.2Z" fill="#fff"/></svg>