<svg xmlns="http://www.w3.org/2000/svg" viewBox="0 0 624 242.67"><polygon points="0 0 624 0 624 208 312 208 312 242.67 173.33 242.67 173.33 208 0 208 0 0" fill="#cb3837"/><polygon points="34.67 173.33 104 173.33 104 69.33 138.67 69.33 138.67 173.33 173.33 173.33 173.33 34.67 34.67 34.67 34.67 173.33" fill="#fff"/><path d="M208,34.67V208h69.33V173.33h69.34V34.67Zm104,104H277.33V69.33H312Z" fill="#fff"/><polygon points="381.33 34.67 381.33 173.33 450.67 173.33 450.67 69.33 485.33 69.33 485.33 173.33 520 173.33 520 69.33 554.67 69.33 554.67 173.33 589.33 173.33 589.33 34.67 381.33 34.67" fill="#fff"/></svg>