<svg xmlns="http://www.w3.org/2000/svg" viewBox="0 0 504.67 504.5"><rect width="504.67" height="504.5" fill="#fadd33"/><path d="M132.52,421.18l38.57-23.34c7.45,13.19,14.21,24.35,30.45,24.35,15.56,0,25.38-6.09,25.38-29.77v-161h47.36V393.1c0,49-28.76,71.38-70.71,71.38C165.68,464.48,143.69,444.86,132.52,421.18Z"/><path d="M300,416.1l38.57-22.32c10.15,16.57,23.35,28.75,46.69,28.75,19.62,0,32.14-9.81,32.14-23.34,0-16.24-12.86-22-34.51-31.46L371,362.65c-34.17-14.55-56.84-32.81-56.84-71.38,0-35.53,27.07-62.59,69.36-62.59,30.11,0,51.76,10.49,67.32,37.89L414,290.25c-8.12-14.54-16.91-20.3-30.44-20.3-13.87,0-22.67,8.8-22.67,20.3,0,14.21,8.8,20,29.09,28.76l11.84,5.07c40.26,17.26,62.93,34.85,62.93,74.43,0,42.63-33.49,66-78.49,66C342.28,464.48,313.86,443.51,300,416.1Z"/></svg>