<svg xmlns="http://www.w3.org/2000/svg" xmlns:xlink="http://www.w3.org/1999/xlink" viewBox="0 0 594.55 356.73"><defs><linearGradient id="a" x1="-15.41" y1="359.86" x2="595.66" y2="7.54" gradientTransform="matrix(1, 0, 0, -1, 0, 357.94)" gradientUnits="userSpaceOnUse"><stop offset="0" stop-color="#2298bd"/><stop offset="1" stop-color="#0ed7b5"/></linearGradient></defs><path d="M297.27,0Q178.37,0,148.64,118.91q44.58-59.46,104-44.59c22.62,5.65,38.78,22.06,56.67,40.22,29.15,29.58,62.88,63.82,136.56,63.82q118.9,0,148.64-118.91-44.59,59.46-104,44.6C467.89,98.39,451.72,82,433.83,63.82,404.69,34.24,371,0,297.27,0ZM148.64,178.36Q29.72,178.36,0,297.27q44.6-59.44,104.05-44.59c22.61,5.66,38.77,22.06,56.67,40.22,29.14,29.59,62.88,63.83,136.55,63.83q118.92,0,148.64-118.91-44.6,59.46-104,44.59c-22.62-5.65-38.78-22.06-56.68-40.22C256.05,212.6,222.32,178.36,148.64,178.36Z" fill-rule="evenodd" fill="url(#a)"/></svg>