<svg xmlns="http://www.w3.org/2000/svg" viewBox="0 0 512 379.38"><path d="M362.71,296.63c-68.54,35-143.84,35.07-212.38,0-6.27-3.21-11.33-13.49-11.33-22.45V251.29c0-9,5.07-13.33,11.33-10.13,68.54,35.08,143.85,35.08,212.38,0C369,238,374,242.33,374,251.29v22.89C374,283.14,369,293.42,362.71,296.63Z" fill="#c1272d"/><path d="M428.7,98.52c-1-17.45.93-33.08-6.81-46.49C402.88,19.07,355,0,258,0V1h0V0C164,0,112.05,19.3,93,52.25,85.3,65.66,86.4,81.18,85.43,98.63c-.77,13.93-7,29-4.46,45,3.28,20.85,4.65,41.5,7.76,60.78,2.53,15.71,23.59,28.66,25.62,43.69C119.86,288.88,161,307.57,258,307.58V308h0v-.42c98,0,137.1-18.73,142.61-59.52,2-15,22.25-28,24.78-43.69,3.11-19.29,4.45-40,7.73-60.81C435.64,127.53,429.47,112.45,428.7,98.52Z" fill="#efcca3"/><path d="M362.71,316.85a307.19,307.19,0,0,1-212.38,0c-6.27-2.3-11.33-9.71-11.33-16.16V284.21c0-6.45,5.07-9.6,11.33-7.29a307.08,307.08,0,0,0,212.38,0c6.27-2.31,11.33.84,11.33,7.29v16.48C374,307.14,369,314.55,362.71,316.85Z" fill="#ed1c24"/><circle cx="256.52" cy="325.44" r="9.74" fill="#c1272d"/><path d="M257.44,112c17.39.21,28.84,11.75,40.12,21.7,13.13,11.59,35.91,19.8,45.11,29.7s21.23,20.28,25.74,35.85,5.81,35.66,5.81,40.85,3,4,10.88,0c18.72-9.37,39.75-34,39.75-34-2.53,15.7-22.71,28.51-24.74,43.54C394.6,290.47,354.94,309,257.05,309h.39Z" fill="#ccac8d"/><path d="M320.42,81.57c3.79,12.52,16.31,54.57-8.31,40.34,0,0,10.25,6,16.89,28.66s23.29,25.52,23.29,25.52,26.8,5.13,46.72-11.82c17-14.43,19.66-40.13,12.54-59.48s-20.13-25.39-39-29.37S316.26,67.81,320.42,81.57Z" fill="#ccac8d"/><circle cx="368.09" cy="127.42" r="35.24"/><circle cx="359.06" cy="111.71" r="9.04" fill="#fff"/><path d="M314.68,125.7s31.76,21.42,49,42.79,16.87,25.35,16.87,25.35l-12.24,5.43S350.79,166.12,329,153.58s-24.47-23-24.47-23Z" fill="#efcca3"/><circle cx="256.52" cy="324.02" r="8.32" fill="#ff931e"/><circle cx="259.02" cy="326.92" r="2.91" fill="#ffb81e"/><circle cx="256.52" cy="336.89" r="5.58" fill="#ff931e"/><circle cx="258.2" cy="338.84" r="1.95" fill="#ffb81e"/><path d="M257.44,112c-17.38.21-29.33,11.75-40.61,21.7-13.13,11.59-36.18,19.8-45.37,29.7s-21.37,20.28-25.88,35.85-5.87,35.66-5.87,40.85.94,5.59-10.92,0c-18.94-8.92-39.77-34-39.77-34,2.53,15.7,22.71,28.51,24.74,43.54,5.51,40.79,45.15,59.32,143,59.32h.64Z" fill="#ccac8d"/><path d="M351.5,180.59C332.21,156.83,301.41,135,258.76,135h-.41c-42.65,0-73.45,21.83-92.74,45.59-19.93,24.23-18.57,34-18.57,57.25,0,84.11,29.48,59.18,49.21,69.29,20.14,9.9,40.61,5.87,62.1,5.87h.41c21.49,0,42.05,3.85,62.1-6.21,19.81-9.94,49.21,15.31,49.21-68.79C370.07,214.77,371.43,204.82,351.5,180.59Z" fill="#56332b"/><path d="M256.61,155.59s-2.7,38.61-8.5,46.22l10.45-2.54Z" fill="#442823"/><path d="M259.26,155.59s2.7,38.61,8.49,46.22l-10.44-2.54Z" fill="#442823"/><path d="M225.82,146.62c-4.06-9.26,10.25-24.19,33.09-24.22s37.23,15,33.08,24.22c-4,9.43-18.58,12.46-33.08,12.68C244.41,159.08,229.94,156,225.82,146.62Z" fill="#56332b"/><path d="M259.18,155.61c-.08-1.73,13.71-1.91,20.79-6.77,0,0-14.87,4.69-18.14,2.93s-3.87-6.46-4.16-6.46-1,5-3.71,6.46-19.61-2.93-19.61-2.93,22.41,5.43,22.26,6.75-.2,5.06-.2,7.9c0,10,.17,34.88,1.48,36.82,2.5,3.67,1.49-26.79,1.49-36.82C259.38,160.66,259.26,157.34,259.18,155.61Z"/><path d="M259.6,209.51c6.8,0,18.85,4.65,29.52,12.3-10.5-11.45-22.81-19.58-29.54-19.58-7.16,0-22.31,8.86-33.37,21.64C237.93,214.82,252.16,209.51,259.6,209.51Z" fill="#7f4a41"/><path d="M257.09,280c-15.31,0-30-4.82-43.5-8.32-2.91-.76-5.76,1.31-8.56.41C180,264,159.46,250.33,147,233.39c0,1.33.07,2.71.07,4.13,0,84.11,29.48,59.34,49.21,69.45,20.14,9.9,40.61,6,62.1,6h.41c21.49,0,42,3.69,62.1-6.21,19.73-10.11,49.21,15,49.21-69.11,0-3.24.14-6.16.33-9-11.72,18.61-32.85,33.79-59.25,42.65-2.5.84-7.94-1.26-10.52-.54C286.29,274.84,273.52,280,257.09,280Z" fill="#442823"/><path d="M218.85,234.86s-10.09,30-3.21,43.24L206.47,274S213.59,243.69,218.85,234.86Z" fill="#442823"/><path d="M298.31,234.86s10.09,30,3.21,43.24l9.17-4.11S303.57,243.69,298.31,234.86Z" fill="#442823"/><path d="M193.43,81.57c-3.79,12.52-16.31,54.57,8.32,40.34,0,0-10.25,6-16.89,28.66s-23.3,25.52-23.3,25.52-26.8,5.13-46.71-11.82c-17-14.43-19.66-40.13-12.55-59.48s20.13-25.39,39-29.37S197.6,67.81,193.43,81.57Z" fill="#ccac8d"/><path d="M258.56,202.17c10.64,0,44.25,23.06,44.9,51.78,0-.48.06-1,.06-1.44,0-29.41-27.28-53.24-45-53.24s-45,23.83-45,53.24c0,.48,0,1,.06,1.44C214.3,225.23,247.91,202.17,258.56,202.17Z"/><ellipse cx="265.88" cy="140.78" rx="3.26" ry="6.16" transform="translate(-26.73 70.85) rotate(-14.46)" fill="#331712"/><ellipse cx="248.5" cy="140.78" rx="6.16" ry="3.26" transform="translate(40.41 336.41) rotate(-72.77)" fill="#331712"/><circle cx="147.77" cy="127.42" r="35.24"/><circle cx="156.81" cy="111.71" r="9.04" fill="#fff"/><path d="M269.14,127.73c0-.28-9.12,4-11.68,4.34-2.57-.36-11.71-4.62-11.68-4.34a109.22,109.22,0,0,1,11.68.12A109.23,109.23,0,0,1,269.14,127.73Z" fill="#7f4a41"/><path d="M199.18,125.7s-31.76,21.42-49,42.79-16.87,25.35-16.87,25.35l12.25,5.43s17.5-33.15,39.34-45.69,24.47-23,24.47-23Z" fill="#efcca3"/><path d="M129.93,61.78s-10.62,29.45-34.76,42C95.17,103.78,132.54,99.4,129.93,61.78Z" fill="#ccac8d"/><path d="M382.12,61.78s10.62,29.45,34.76,42C416.88,103.78,379.51,99.4,382.12,61.78Z" fill="#ccac8d"/><path d="M313.24,117.06s-23.3-24.91-55.15-25.53l0-.06c-.2,0,.18,0,0,0s0,0,0,0v.06c-31,.62-55.24,25.53-55.24,25.53C230.31,97.78,256,98.23,258,98.39v0s-.09,0,0,0,0,0,0,0v0C261,98.23,285.69,97.78,313.24,117.06Z" fill="#ccac8d"/><path d="M285.6,64.91S273.94,48,258,47.57l0,0c-.1,0,.11,0,0,0s0,0,0,0v0c-14,.42-27.62,17.34-27.62,17.34C244.15,51.81,258,52.12,258,52.23h0C261,52.12,271.82,51.81,285.6,64.91Z" fill="#ccac8d"/><path d="M147.65,187.86s-18.88,9.3-32.26,3.73l.07,0s.28,0,.19,0,.35,0,.35,0v0c-14-6.93-18.38-27.14-18.38-27.14S108.88,200,147.65,187.86Z" fill="#ccac8d"/><path d="M367,187.86s18.89,9.3,32.27,3.73l-.08,0a6.9,6.9,0,0,0,1,0c.09,0,.81,0,.81,0v0c14-6.93,17.22-27.14,17.22-27.14S405.8,200,367,187.86Z" fill="#ccac8d"/><path d="M258,72.27v0Z" fill="#ccac8d"/><path d="M257.89,77.33s.07,0,0,0S257.89,77.33,257.89,77.33Z" fill="#ccac8d"/><path d="M169.44,59.59c10.47-2.15,27.47-2.55,41.13,2.19,17.34,6,3.37,28,6.88,29.21s8.21-15.22,40.44-13.67S294,93.16,298.38,91s-4.33-40.16,44.14-31.4c0,0-50.77-13.63-48.41,23.19,0,0-29-22.57-70-2.29C224.11,80.49,234.66,46.18,169.44,59.59Z" fill="#ccac8d"/><path d="M346.72,59.66c.62.14,1.21.28,1.78.43C348.5,60.09,347.85,59.92,346.72,59.66Z" fill="#ccac8d"/><path d="M346.41,59.59l.31.07Z" fill="#ccac8d"/><path d="M155.53,10.61s-43.22,54.3-49.74,75.31S94.7,193.84,89,206.15l-20.17-85.4L105.79,31.6Z" fill="#ccac8d"/><path d="M358.57,10.61s43.22,54.3,49.73,75.31,11.09,107.92,16.78,120.23l20.16-85.4L408.3,31.6Z" fill="#ccac8d"/><path d="M356.47,10.61s46.39,38.79,59.8,83.55,7.86,99.2,18.43,106.2c14.77,9.77,31.6-47.41,37.22-53.56,8.68-9.5,38.1-34,40-38.43s-59.22-71.14-86.08-84.26C393.9,8.49,353.85,7.14,356.47,10.61Z" fill="#56332b"/><path d="M396.23,34.49s54.84,70,53.84,157.09l21.85-44.78S452.73,89.54,396.23,34.49Z" fill="#442823"/><path d="M155.53,10.61S109.14,49.4,95.73,94.16s-7.86,99.2-18.43,106.2C62.53,210.13,45.7,153,40.08,146.8c-8.68-9.5-38.1-34-40-38.43S59.26,37.23,86.12,24.11C118.1,8.49,158.15,7.14,155.53,10.61Z" fill="#56332b"/><path d="M115.77,34.49s-54.84,70-53.84,157.09L40.08,146.8S59.27,89.54,115.77,34.49Z" fill="#442823"/><path d="M86,193.37s3.83,21.75,10.55,28.49,2.07-5.23,2.07-5.23-6.64-3.56-5.53-31.29S86,193.37,86,193.37Z" fill="#ccac8d"/><path d="M427.56,193.37s-3.83,21.75-10.54,28.49-2.08-5.23-2.08-5.23,6.64-3.56,5.53-31.29S427.56,193.37,427.56,193.37Z" fill="#ccac8d"/><path d="M282.77,359.14a11.33,11.33,0,1,0-15.9-13.49,113.81,113.81,0,0,0-23.08-4.13,11.34,11.34,0,1,0-19.59,7.15A11.33,11.33,0,1,0,240,362.52a131.26,131.26,0,0,0,23.19,4.15,11.33,11.33,0,1,0,19.6-7.53Z" fill="#ffb81e"/><path d="M274.52,379.38a12.82,12.82,0,0,1-2.22-.2A12.44,12.44,0,0,1,262,367.73a133.24,133.24,0,0,1-21.35-3.82,12.5,12.5,0,1,1-18.26-15.56,12.5,12.5,0,0,1,12.25-19.73A12.52,12.52,0,0,1,245,340.45a115.43,115.43,0,0,1,21.18,3.79,12.5,12.5,0,1,1,18.4,15.21,12.5,12.5,0,0,1-10,19.93Zm-35.28-18.26,1,.28a131,131,0,0,0,23,4.11l1.08.09,0,1.09a10.17,10.17,0,1,0,17.59-6.76l-1.06-1.14,1.39-.69A10.17,10.17,0,1,0,268,346l-.33,1.09-1.09-.32a113.61,113.61,0,0,0-22.85-4.08l-1.13-.08.06-1.14a10.18,10.18,0,1,0-17.58,6.42l1,1.13-1.38.7a10.17,10.17,0,1,0,14.16,12.43Z" fill="#ff931e"/><circle cx="235" cy="337.94" r="4.26" fill="#fc6"/><circle cx="276.79" cy="368.87" r="4.26" fill="#fc6"/><circle cx="253.48" cy="353.9" r="2.63" fill="#ff931e"/><circle cx="233" cy="350.83" r="2.63" fill="#ff931e"/><circle cx="273.96" cy="358" r="2.63" fill="#ff931e"/><circle cx="217.09" cy="176.82" r="3.07" fill="#442823"/><circle cx="198.66" cy="196.28" r="3.07" fill="#442823"/><circle cx="192.51" cy="176.82" r="3.07" fill="#442823"/><circle cx="294.91" cy="176.82" r="3.07" fill="#442823"/><circle cx="313.34" cy="196.28" r="3.07" fill="#442823"/><circle cx="319.49" cy="176.82" r="3.07" fill="#442823"/></svg>