<svg xmlns="http://www.w3.org/2000/svg" viewBox="0 0 634.92 635.77"><path d="M320.15,31.13l-287,287.35L319,604.64l287-287.35Z" fill="#019833" stroke="#000" stroke-width="1.15"/><path d="M319,32.33V7.18L6.88,319.68h26.3Z" fill="#66fe98" stroke="#000" stroke-width="1.15"/><path d="M318.23,32.33V7.18l312.08,312.5H604Z" fill="#45fe02" stroke="#000" stroke-width="1.15"/><path d="M319,606.31v25.15L6.88,319h26.3Z" fill="#017d17" stroke="#000" stroke-width="1.15"/><path d="M64.77,38.92H266L278.26,51.2V88.87l-9.73,11.85h-22V287.83L435.94,100.72H404.66l-11-11.85V49.08l10.15-9.31H607.57l10.15,10.16V87.18L156.93,560.44H104.51l-15.17-8.77V99H63.93l-9.31-9.31V49.93Z" fill="none" stroke="#000" stroke-width="22.92"/><path d="M318.23,606.31v25.15L630.31,319H604Z" fill="#005d04" stroke="#000" stroke-width="1.15"/><path d="M318.11,4.87,4.86,318.54,316.8,630.9,630.06,317.23Z" fill="none" stroke="#000" stroke-width="6.88"/><path d="M268.13,58.07l11.36-6L267.84,40.41h-203L54.55,50.74V89.8L66,101.25,71.44,89.8l-7.17-7.19V55.08l5.38-4.79h193.7Z" fill="#fefefe" stroke="#000" stroke-width="1.15"/><path d="M411.63,49.08l-7.16,7.18V82.61l6.27,6.28h33.17v25.46L224.51,337V89.21H261l7.48-7.5V55.05l-6.91-5.34H69.67L63.39,56V83.23l6.39,6.39h33.37V546l6.28,6.28h37.92l459.77-475V56.26L600,49.08Z" fill="none" stroke="#000" stroke-width="1.21"/><path d="M102.82,88.87V546.05l5.92,6.77-4.65,8.86L91,548.59V100.72Z" fill="#fefefe" stroke="#000" stroke-width="1.15"/><path d="M70,88.87l-3.39,11H91.16l13.53-11Z" fill="gray" stroke="#000" stroke-width="1.15"/><path d="M406.84,101.23l5.38-11.07L404.44,83V58.43l9-9H600.54L607.71,59l10.17-7.19L607.41,41.37H406.24l-10,10V90.76l10.39,9.8M244,289.56,224.49,337,445.1,115.54V89.2Z" fill="#fefefe" stroke="#000" stroke-width="1.15"/><path d="M267.69,56.7l9.72-6.35V88.87l-11.2,11.22H244.44V289.94l-19.87,47V88.87h36.35l6.77-5.5Z" fill="gray" stroke="#000" stroke-width="1.15"/><path d="M411.63,49.08l-7.16,7.18V82.61l6.27,6.28h33.17v25.46L224.51,337V89.21H261l7.48-7.5V55.05l-6.91-5.34H69.67L63.39,56V83.23l6.39,6.39h33.37V546l6.28,6.28h37.92l459.77-475V56.26L600,49.08Z" fill="#ccc" stroke="#000" stroke-width="1.21"/><path d="M607.71,56.87,617.92,51V88L154.78,561.9H105.61l4.69-9.34H148L607.12,77.82Z" fill="gray" stroke="#000" stroke-width="1.15"/><path d="M444.18,89.51,433.83,100.3H406.77l6.34-10.79Z" fill="gray" stroke="#000" stroke-width="1.15"/><path d="M333.74,356.69a2.09,2.09,0,0,0-.94.47l-8.89,7.65a2,2,0,0,0-.58.89l-8.89,24.94a2,2,0,0,0,.47,2.14l6.8,6.81a2,2,0,0,0,1.46.58h27.47a2,2,0,0,0,1.46-.58l7.17-7.23a1.91,1.91,0,0,0,.52-.89l7.64-26.24a2.07,2.07,0,0,0-.52-2L361,357.27a2.07,2.07,0,0,0-1.47-.58H333.74ZM283.42,427a2,2,0,0,0-1.57,1.52L278.45,442a2.06,2.06,0,0,0,1.5,2.51,2,2,0,0,0,.49.06H296.6L256.53,559.15a2.08,2.08,0,0,0,1.3,2.62,2.24,2.24,0,0,0,.63.1h58.33a2.06,2.06,0,0,0,2-1.41l3.82-12.31a2.07,2.07,0,0,0-1.37-2.58,2.16,2.16,0,0,0-.62-.09H307.43l39.65-115.77a2.06,2.06,0,0,0-1.3-2.61,2,2,0,0,0-.64-.11h-61.3A1.48,1.48,0,0,0,283.42,427Zm185.6.42a2,2,0,0,0-1.15.68l-12.14,13.72h-19.3l-12.87-13.35a2,2,0,0,0-1.46-.63H376a2.06,2.06,0,0,0-1.94,1.36l-4.23,12.68a2.05,2.05,0,0,0,1.3,2.61,1.94,1.94,0,0,0,.63.11h12.35l-38.4,113.3a2.07,2.07,0,0,0,1.3,2.62,2.32,2.32,0,0,0,.64.11h49.06a2.08,2.08,0,0,0,1.94-1.37l3.77-11a2.08,2.08,0,0,0-1.3-2.62,2.31,2.31,0,0,0-.64-.1h-8.58l24.48-77.16H460.7l-27.93,89.62a2.06,2.06,0,0,0,1.37,2.58,1.87,1.87,0,0,0,.62.1H482.1a2.06,2.06,0,0,0,1.88-1.26l4.24-10.16a2.07,2.07,0,0,0-1.16-2.69,2,2,0,0,0-.73-.14h-8.57l24.9-78.47h42.16l-28.35,90a2.06,2.06,0,0,0,1.37,2.58,1.81,1.81,0,0,0,.61.1h52a2.09,2.09,0,0,0,1.94-1.31l4.23-11.06a2.05,2.05,0,0,0-1.93-2.77H564.38l31.34-101.89a2,2,0,0,0-.32-1.88l-9.73-13.1a2,2,0,0,0-1.67-.78H546.81a2,2,0,0,0-1.52.63l-11.72,12.88h-20.5L500.93,428a2.08,2.08,0,0,0-1.52-.63h-30A1.48,1.48,0,0,0,469,427.41Z" fill="#ccc" stroke="#000" stroke-miterlimit="10" stroke-width="9.7"/><path d="M334.16,358.73l-8.89,7.65-8.9,24.94,6.8,6.81h27.47l7.16-7.23,7.64-26.25-5.91-5.92ZM283.84,429l-3.4,13.52h19l-41,117.28h58.33l3.82-12.31H304.55L345.14,429Zm185.6.42-12.71,14.41H435.59l-13.49-14H376l-4.24,12.68H387l-39.33,116h49.06l3.77-11.05h-11.4l25.79-81.24h48.65l-28.77,92.29H482.1l4.23-10.16h-11.4l26.21-82.55h46.5l-29.19,92.71h52l4.24-11.05H561.56L593.73,443,584,429.87H546.81l-12.3,13.51H512.12l-12.71-13.93Z" fill="#ccc" stroke="#000" stroke-miterlimit="10" stroke-width="1.21"/></svg>